<?xml version="1.0" encoding="UTF-8" standalone="no"?>
<svg
   width="256"
   height="256"
   viewBox="24 28 256 256"
   id="svg11300"
   version="1.0"
   xmlns="http://www.w3.org/2000/svg"
   xmlns:xlink="http://www.w3.org/1999/xlink">
  <defs
     id="defs3">
    <linearGradient
       id="linearGradient9">
      <stop
         style="stop-color:#d74612;stop-opacity:1;"
         offset="0"
         id="stop9" />
      <stop
         style="stop-color:#d74612;stop-opacity:0;"
         offset="1"
         id="stop10" />
    </linearGradient>
    <linearGradient
       id="linearGradient5">
      <stop
         style="stop-color:#fbd3c1;stop-opacity:1;"
         offset="0"
         id="stop5" />
      <stop
         style="stop-color:#f9b598;stop-opacity:0;"
         offset="1"
         id="stop6" />
    </linearGradient>
    <filter
       style="color-interpolation-filters:sRGB"
       id="filter1"
       x="-0.01247707"
       y="-0.010732494"
       width="1.0249541"
       height="1.021465">
      <feGaussianBlur
         stdDeviation="1.0016994"
         id="feGaussianBlur1" />
    </filter>
    <filter
       style="color-interpolation-filters:sRGB"
       id="filter2"
       x="-0.049908275"
       y="-0.042929971"
       width="1.0998165"
       height="1.0858599">
      <feGaussianBlur
         stdDeviation="4.0067974"
         id="feGaussianBlur2" />
    </filter>
    <linearGradient
       id="linearGradient7537">
      <stop
         style="stop-color:#f37e40;stop-opacity:1"
         offset="0"
         id="stop7539" />
      <stop
         style="stop-color:#f34f17;stop-opacity:1"
         offset="1"
         id="stop7541" />
    </linearGradient>
    <linearGradient
       xlink:href="#linearGradient7537"
       id="linearGradient4226"
       x1="4.4137931"
       y1="223.83823"
       x2="489.93103"
       y2="368.66565"
       gradientUnits="userSpaceOnUse"
       gradientTransform="matrix(0,-0.453125,-0.45311204,0,277.957,268)" />
    <linearGradient
       xlink:href="#linearGradient5"
       id="linearGradient6"
       x1="103.41325"
       y1="120.5"
       x2="124.25939"
       y2="194.44687"
       gradientUnits="userSpaceOnUse" />
    <linearGradient
       xlink:href="#linearGradient7537"
       id="linearGradient7"
       x1="4.4137931"
       y1="223.83823"
       x2="489.93103"
       y2="368.66565"
       gradientUnits="userSpaceOnUse"
       gradientTransform="matrix(0,-0.453125,-0.45311204,0,278.29973,268)" />
    <linearGradient
       xlink:href="#linearGradient9"
       id="linearGradient10"
       x1="152"
       y1="112"
       x2="152.33887"
       y2="88"
       gradientUnits="userSpaceOnUse" />
    <filter
       style="color-interpolation-filters:sRGB"
       id="filter10"
       x="-0.047801699"
       y="-0.082702339"
       width="1.0956034"
       height="1.165404">
      <feGaussianBlur
         stdDeviation="1.5068715"
         id="feGaussianBlur10" />
    </filter>
    <filter
       style="color-interpolation-filters:sRGB"
       id="filter1062-3"
       x="-0.012910164"
       width="1.0258203"
       y="-0.013017735"
       height="1.0260355">
      <feGaussianBlur
         stdDeviation="0.67258301"
         id="feGaussianBlur1064-6" />
    </filter>
    <filter
       style="color-interpolation-filters:sRGB"
       id="filter1066"
       x="-0.0070588236"
       width="1.0141176"
       y="-0.040000001"
       height="1.08">
      <feGaussianBlur
         stdDeviation="0.4"
         id="feGaussianBlur1068" />
    </filter>
    <filter
       style="color-interpolation-filters:sRGB"
       id="filter1062-3-0"
       x="-0.012910163"
       width="1.0258203"
       y="-0.013017735"
       height="1.0260355">
      <feGaussianBlur
         stdDeviation="0.67258301"
         id="feGaussianBlur1064-6-2" />
    </filter>
  </defs>
  <g
     id="layer1">
    <g
       id="layer8"
       style="display:inline">
      <path
         id="rect4158-2"
         style="color:#000000;display:inline;overflow:visible;visibility:visible;opacity:0.2;fill:#1a1a1a;fill-opacity:1;fill-rule:nonzero;stroke:none;stroke-width:1;marker:none;filter:url(#filter2);enable-background:accumulate"
         d="m 102.91016,46.000001 c -35.296658,0 -36.986955,3.67865 -38.921879,38.99414 l -8,146.011719 C 54.053357,266.32134 59.613502,270 94.91016,270 h 57.07812 0.006 57.07812 c 35.29666,0 40.8568,-3.67866 38.92188,-38.99414 L 239.99414,84.994141 c -1.93493,-35.31549 -3.62522,-38.99414 -38.92188,-38.99414 h -49.07812 -0.006 z" />
      <path
         id="rect4158-2-7"
         style="color:#000000;display:inline;overflow:visible;visibility:visible;opacity:0.1;fill:#1a1a1a;fill-opacity:1;fill-rule:nonzero;stroke:none;stroke-width:1;marker:none;filter:url(#filter1);enable-background:accumulate"
         d="M 102.91016,46 C 67.6135,46 65.9232,49.678651 63.98828,84.994141 l -8,146.011719 C 54.05336,266.32134 59.6135,270 94.91016,270 h 57.07812 0.006 57.07812 c 35.29666,0 40.8568,-3.67866 38.92188,-38.99414 L 239.99414,84.994141 C 238.05921,49.678651 236.36892,46 201.07226,46 h -49.07812 -0.006 z" />
      <path
         id="rect4158"
         style="color:#000000;display:inline;overflow:visible;visibility:visible;fill:url(#linearGradient4226);fill-rule:nonzero;stroke:none;stroke-width:1;marker:none;enable-background:accumulate"
         d="M 102.91602,44 C 67.619362,44 65.929065,47.678645 63.994141,82.994141 l -8,146.011719 C 54.059217,264.32134 59.619362,268 94.91602,268 h 57.07812 0.006 57.07812 c 35.29666,0 40.8568,-3.67866 38.92188,-38.99414 L 240,82.994141 C 238.06506,47.678647 236.37478,44 201.07812,44 H 152 h -0.006 z" />
      <path
         id="rect4158-06"
         style="color:#000000;display:inline;overflow:visible;visibility:visible;fill:url(#linearGradient7);fill-rule:nonzero;stroke:none;stroke-width:1;marker:none;enable-background:accumulate"
         d="M 103.25875,44 C 67.962093,44 66.271796,47.678645 64.336872,82.994141 l -8,146.011719 C 54.401948,264.32134 59.962093,268 95.25875,268 h 57.07812 0.006 57.07812 c 35.29666,0 40.8568,-3.67866 38.92188,-38.99414 L 240.34273,82.994141 C 238.40779,47.678647 236.71751,44 201.42085,44 h -49.07812 -0.006 z" />
      <path
         id="rect5"
         style="display:inline;enable-background:new;opacity:0.1;fill:url(#linearGradient6);fill-opacity:1;stroke:none;stroke-width:2;stroke-linecap:round;stroke-linejoin:round;stroke-dasharray:none;stroke-opacity:1"
         d="M 62.746094 112 L 56.335938 229.00586 C 54.401019 264.3213 59.961188 268 95.257812 268 L 152.33594 268 L 152.34375 268 L 209.42188 268 C 244.7185 268 250.27867 264.3213 248.34375 229.00586 L 241.93164 112 L 62.746094 112 z " />
      <path
         style="font-style:normal;font-variant:normal;font-weight:300;font-stretch:normal;font-size:196.248px;line-height:1000%;font-family:Ubuntu;-inkscape-font-specification:'Ubuntu Light';letter-spacing:0px;word-spacing:0px;display:inline;opacity:0.1;fill:#000000;fill-opacity:1;stroke:none;stroke-width:4.9062px;stroke-linecap:butt;stroke-linejoin:miter;stroke-opacity:1;filter:url(#filter1062-3);enable-background:new"
         d="m 140.4961,130 c -4.70996,9.81241 -9.22355,19.756 -13.54101,29.83008 -4.31746,9.94324 -8.7021,20.41049 -13.15039,31.40039 -1.66494,4.23801 -3.36668,8.65932 -5.07031,13.0918 -1.04969,2.39777 -2.22981,5.26835 -4.07813,10.23242 -3.0972,8.22972 -6.631802,17.55233 -10.087888,26.67969 -1.25915,3.18508 -2.64003,6.75373 -4.82617,12.76562 h 14.718748 11.10156 l 12.36328,-34.73633 24.33203,-1.05859 24.33399,1.05859 L 188.9551,254 h 11.10156 14.71875 c -2.18614,-6.01189 -3.56702,-9.58054 -4.82617,-12.76562 -3.45609,-9.12736 -6.99069,-18.44997 -10.08789,-26.67969 -1.84833,-4.96407 -3.02844,-7.83465 -4.07813,-10.23242 -1.70363,-4.43248 -3.40538,-8.85379 -5.07031,-13.0918 -4.44829,-10.9899 -8.83294,-21.45715 -13.1504,-31.40039 C 173.24505,149.75599 168.73145,139.81241 164.02149,130 h -0.39062 -11.11328 -0.51758 -11.11328 z m 11.76172,27.03711 c 0.0856,0.19974 0.17424,0.39587 0.25977,0.5957 v 0.15235 c 3.59305,7.98261 7.06728,16.24447 10.41015,24.81054 4.0558,10.59741 4.11217,9.58637 8.16797,20.96875 l -18.83789,0.67969 -18.83593,-0.67969 c 4.0558,-11.38238 4.11216,-10.37134 8.16796,-20.96875 3.34287,-8.56607 6.81711,-16.82793 10.41016,-24.81054 v -0.15235 c 0.0854,-0.19959 0.17233,-0.3962 0.25781,-0.5957 z"
         id="path1052-7" />
      <path
         style="font-style:normal;font-variant:normal;font-weight:300;font-stretch:normal;font-size:196.248px;line-height:1000%;font-family:Ubuntu;-inkscape-font-specification:'Ubuntu Light';letter-spacing:0px;word-spacing:0px;display:inline;opacity:0.1;fill:#000000;fill-opacity:1;stroke:none;stroke-width:4.9062px;stroke-linecap:butt;stroke-linejoin:miter;stroke-opacity:1;filter:url(#filter1062-3-0);enable-background:new"
         d="m 140.4961,130.0002 c -4.70996,9.81241 -9.22355,19.756 -13.54101,29.83008 -4.31746,9.94324 -8.7021,20.41049 -13.15039,31.40039 -1.66494,4.23801 -3.36668,8.65932 -5.07031,13.0918 -1.04969,2.39777 -2.22981,5.26835 -4.07813,10.23242 -3.0972,8.22972 -6.631805,17.55233 -10.087891,26.67969 -1.25915,3.18508 -2.64003,6.75373 -4.82617,12.76562 h 14.718751 11.10156 l 12.36328,-34.73633 24.33203,-1.05859 24.33399,1.05859 12.36329,34.73633 h 11.10156 14.71875 c -2.18614,-6.01189 -3.56702,-9.58054 -4.82617,-12.76562 -3.45609,-9.12736 -6.99069,-18.44997 -10.08789,-26.67969 -1.84833,-4.96407 -3.02844,-7.83465 -4.07813,-10.23242 -1.70363,-4.43248 -3.40538,-8.85379 -5.07031,-13.0918 -4.44829,-10.9899 -8.83294,-21.45715 -13.1504,-31.40039 -4.31746,-10.07409 -8.83106,-20.01767 -13.54102,-29.83008 h -0.39062 -11.11328 -0.51758 -11.11328 z m 11.76172,27.03711 c 0.0856,0.19974 0.17424,0.39587 0.25977,0.5957 v 0.15235 c 3.59305,7.98261 7.06728,16.24447 10.41015,24.81054 4.0558,10.59741 4.11217,9.58637 8.16797,20.96875 l -18.83789,0.67969 -18.83593,-0.67969 c 4.0558,-11.38238 4.11216,-10.37134 8.16796,-20.96875 3.34287,-8.56607 6.81711,-16.82793 10.41016,-24.81054 v -0.15235 c 0.0854,-0.19959 0.17233,-0.3962 0.25781,-0.5957 z"
         id="path1052-7-3" />
      <path
         style="font-style:normal;font-variant:normal;font-weight:300;font-stretch:normal;font-size:196.248px;line-height:1000%;font-family:Ubuntu;-inkscape-font-specification:'Ubuntu Light';letter-spacing:0px;word-spacing:0px;display:inline;fill:#fff9f2;fill-opacity:1;stroke:none;stroke-width:4.9062px;stroke-linecap:butt;stroke-linejoin:miter;stroke-opacity:1;enable-background:new"
         d="m 140.4961,128 c -4.70996,9.81241 -9.22355,19.756 -13.54101,29.83008 -4.31746,9.94324 -8.7021,20.4105 -13.15039,31.40039 -1.66494,4.23801 -3.36668,8.65932 -5.07031,13.0918 -1.04969,2.39777 -2.22981,5.26836 -4.07813,10.23242 -3.0972,8.22972 -6.631802,17.55233 -10.087888,26.67969 -1.25915,3.18508 -2.64003,6.75373 -4.82617,12.76562 h 14.718748 11.10156 l 12.36328,-34.73633 24.33203,-1.05859 24.33399,1.05859 L 188.9551,252 h 11.10156 14.71875 c -2.18614,-6.01189 -3.56702,-9.58054 -4.82617,-12.76562 -3.45609,-9.12736 -6.99069,-18.44997 -10.08789,-26.67969 -1.84833,-4.96406 -3.02844,-7.83465 -4.07813,-10.23242 -1.70363,-4.43248 -3.40538,-8.85379 -5.07031,-13.0918 -4.44829,-10.98989 -8.83294,-21.45715 -13.1504,-31.40039 C 173.24505,147.75599 168.73145,137.81241 164.02149,128 h -0.39062 -11.11328 -0.51758 -11.11328 z m 11.76172,27.03711 c 0.0856,0.19974 0.17424,0.39587 0.25977,0.5957 v 0.15235 c 3.59305,7.98261 7.06728,16.24447 10.41015,24.81054 4.0558,10.59741 4.11217,9.58635 8.16797,20.96875 l -18.83789,0.67969 -18.83593,-0.67969 c 4.0558,-11.3824 4.11216,-10.37134 8.16796,-20.96875 3.34287,-8.56607 6.81711,-16.82793 10.41016,-24.81054 v -0.15235 c 0.0854,-0.19959 0.17233,-0.3962 0.25781,-0.5957 z"
         id="text954-5" />
      <rect
         ry="12"
         y="202"
         x="84"
         height="24"
         width="136"
         id="rect1040"
         style="color:#000000;display:inline;overflow:visible;visibility:visible;opacity:0.1;fill:#000000;fill-opacity:1;fill-rule:nonzero;stroke:none;stroke-width:2;stroke-linecap:butt;stroke-linejoin:miter;stroke-miterlimit:4;stroke-dasharray:2, 2;stroke-dashoffset:0;stroke-opacity:1;marker:none;filter:url(#filter1066);enable-background:accumulate"
         rx="12" />
      <path
         style="font-style:normal;font-variant:normal;font-weight:300;font-stretch:normal;font-size:196.248px;line-height:1000%;font-family:Ubuntu;-inkscape-font-specification:'Ubuntu Light';letter-spacing:0px;word-spacing:0px;display:inline;opacity:0.1;fill:#f34f17;fill-opacity:1;stroke:none;stroke-width:4.9062px;stroke-linecap:butt;stroke-linejoin:miter;stroke-opacity:1;enable-background:new"
         d="m 163.75782,128.34961 -11.05078,27.86523 c 3.52502,7.85046 6.93726,15.96708 10.2207,24.38086 4.0558,10.59741 4.11217,9.58635 8.16797,20.96875 l -6.35351,0.22852 4.40625,15.14648 7.44336,0.32422 L 188.9551,252 h 11.10156 14.71875 c -2.18614,-6.01189 -3.56702,-9.58054 -4.82617,-12.76562 -3.45609,-9.12737 -6.99069,-18.44997 -10.08789,-26.67969 -1.84833,-4.96406 -3.02844,-7.83465 -4.07813,-10.23242 -1.70363,-4.43248 -3.40538,-8.85379 -5.07031,-13.0918 -4.44829,-10.98989 -8.83294,-21.45715 -13.1504,-31.40039 -3.113,-7.26369 -6.33141,-14.45625 -9.64844,-21.58399 z"
         id="path1693" />
      <rect
         rx="12"
         style="color:#000000;display:inline;overflow:visible;visibility:visible;fill:#ffffff;fill-opacity:1;fill-rule:nonzero;stroke:none;stroke-width:2;stroke-linecap:butt;stroke-linejoin:miter;stroke-miterlimit:4;stroke-dasharray:2, 2;stroke-dashoffset:0;stroke-opacity:1;marker:none;enable-background:accumulate"
         id="rect4270"
         width="136"
         height="24"
         x="84"
         y="200"
         ry="12" />
      <path
         style="color:#000000;display:inline;overflow:visible;visibility:visible;opacity:0.2;fill:#f34f17;fill-opacity:1;fill-rule:nonzero;stroke:none;stroke-width:2;stroke-linecap:butt;stroke-linejoin:miter;stroke-miterlimit:4;stroke-dasharray:2, 2;stroke-dashoffset:0;stroke-opacity:1;marker:none;enable-background:accumulate"
         d="m 96.000012,208 c -2.216,0 -4,1.784 -4,4 0,2.216 1.784,4 4,4 h 39.624998 32.375 40.37501 c 2.00825,0 3.625,-1.61675 3.625,-3.625 v -0.75 c 0,-2.00825 -1.61675,-3.625 -3.625,-3.625 h -40.37501 -32.375 z"
         id="rect4272" />
      <path
         id="rect9"
         style="opacity:0.3;fill:url(#linearGradient10);fill-opacity:1;stroke:none;stroke-width:2;stroke-linecap:round;stroke-linejoin:round;stroke-dasharray:none;stroke-opacity:1"
         d="M 64.0625 88 L 62.746094 112 L 241.93164 112 L 240.61523 88 L 64.0625 88 z " />
    </g>
    <path
       id="path931-8"
       style="color:#000000;display:inline;overflow:visible;visibility:visible;opacity:0.2;fill:#000000;fill-opacity:1;fill-rule:nonzero;stroke:none;stroke-width:1;marker:none;enable-background:accumulate"
       d="m 55.988281,227.00586 v 2 c 0,0.10567 0.0019,0.19182 0.002,0.29687 C 54.028054,263.01493 58.114007,268 94.92773,268 h 57.06641 0.006 57.06641 c 36.81372,0 40.89967,-4.98507 38.9375,-38.69727 7e-5,-0.10505 0.002,-0.1912 0.002,-0.29687 v -2 c 0,0.64028 -0.0146,1.18068 -0.0176,1.79883 v -1.79883 c 0.005,0.97709 -0.008,1.8403 -0.01,2.76953 -0.028,3.6471 -0.0967,7.01809 -0.26172,9.98047 v 0.50976 C 246.40657,263.27185 239.30762,266 209.06641,266 H 152 h -0.006 -57.06641 c -30.241217,0 -37.340158,-2.72815 -38.650386,-25.73438 v -0.50976 c -0.16501,-2.96238 -0.233723,-6.33337 -0.261719,-9.98047 -0.0019,-0.92923 -0.01454,-1.79244 -0.0098,-2.76953 v 1.79883 c -0.003,-0.61815 -0.01758,-1.15855 -0.01758,-1.79883 z m 0.03711,5.84961 c 0.0021,0.18571 0.0035,0.37882 0.0059,0.5625 -0.0026,-0.18203 -0.0036,-0.37845 -0.0059,-0.5625 z m 191.943359,0 c -0.002,0.18405 -0.003,0.38047 -0.006,0.5625 0.002,-0.18368 0.004,-0.37679 0.006,-0.5625 z" />
    <path
       id="path931"
       style="color:#000000;display:inline;overflow:visible;visibility:visible;opacity:0.3;fill:#ffffff;fill-opacity:1;fill-rule:nonzero;stroke:none;stroke-width:1;marker:none;enable-background:accumulate"
       d="M 102.92188,44 C 69.106029,44.064941 65.45646,46.438642 64,82.994141 v 2 C 65.109667,51.797887 68.50984,46 102.92188,46 h 23.23828 25.83398 0.006 25.83398 23.23829 c 34.41203,0 37.8122,5.797884 38.92187,38.994141 v -2 C 238.53768,46.438647 234.88811,44.0649 201.07227,44 H 177.83398 152 h -0.006 -25.83398 z" />
    <circle
       style="opacity:0.3;fill:#1a1a1a;stroke-width:0;stroke-linecap:round;stroke-linejoin:round"
       id="path2"
       cx="108"
       cy="60"
       r="8" />
    <ellipse
       style="opacity:0.3;fill:#1a1a1a;stroke-width:0;stroke-linecap:round;stroke-linejoin:round"
       id="path3"
       cx="196.21289"
       cy="60"
       rx="7.7871094"
       ry="8" />
    <path
       style="color:#000000;display:inline;opacity:0.15;fill:#1a1a1a;fill-opacity:1;stroke:#1a1a1a;stroke-width:1.86427;stroke-linecap:round;stroke-linejoin:round;stroke-dasharray:none;stroke-opacity:1;filter:url(#filter10);enable-background:new"
       d="m 108.29102,64.511717 a 3.5,3.5 0 0 0 -3.7793,3.197265 c 0,0 -1.12452,12.719118 4.25781,25.636718 C 114.15187,106.26331 126.83336,119.5 152,119.5 c 25.16667,0 37.84814,-13.23669 43.23047,-26.1543 5.38233,-12.9176 4.25781,-25.636718 4.25781,-25.636718 a 3.5,3.5 0 0 0 -3.7793,-3.197265 3.5,3.5 0 0 0 -3.19726,3.779297 c 0,0 0.87546,11.280906 -3.74219,22.363276 C 184.15188,101.73667 174.83334,112.5 152,112.5 c -22.83331,0 -32.15188,-10.76333 -36.76953,-21.84571 -4.61766,-11.08237 -3.74219,-22.363276 -3.74219,-22.363276 a 3.5,3.5 0 0 0 -3.19726,-3.779297 z"
       id="path4-2"
       transform="matrix(1,0,0,1.1509,0,-17.732995)" />
    <path
       style="color:#000000;fill:#f5f4f3;fill-opacity:1;stroke:#e4d1c1;stroke-width:2;stroke-linecap:round;stroke-linejoin:round;stroke-dasharray:none;stroke-opacity:1"
       d="m 108.29102,56.511719 a 3.5,3.5 0 0 0 -3.7793,3.197265 c 0,0 -1.12452,12.719117 4.25781,25.636719 C 114.15187,98.26331 126.83336,111.5 152,111.5 c 25.16667,0 37.84814,-13.23669 43.23047,-26.154297 5.38233,-12.917603 4.25781,-25.636719 4.25781,-25.636719 a 3.5,3.5 0 0 0 -3.7793,-3.197265 3.5,3.5 0 0 0 -3.19726,3.779297 c 0,0 0.87546,11.280908 -3.74219,22.363281 C 184.15188,93.73667 174.83334,104.5 152,104.5 c -22.83331,0 -32.15188,-10.76333 -36.76953,-21.845703 -4.61766,-11.082374 -3.74219,-22.363281 -3.74219,-22.363281 a 3.5,3.5 0 0 0 -3.19726,-3.779297 z"
       id="path4" />
  </g>
</svg>